<svg width="18" height="34" viewBox="0 0 18 34" fill="none" xmlns="http://www.w3.org/2000/svg">
<path d="M0.961047 18.1084H4.68797V33.4516C4.68797 33.7546 4.9334 34 5.23635 34H11.5555C11.8584 34 12.1039 33.7546 12.1039 33.4516V18.1807H16.3883C16.6669 18.1807 16.9013 17.9717 16.9331 17.6949L17.5839 12.0464C17.6017 11.891 17.5525 11.7353 17.4485 11.6187C17.3445 11.502 17.1955 11.4352 17.0392 11.4352H12.1042V7.89437C12.1042 6.82703 12.6788 6.28575 13.8125 6.28575C13.9741 6.28575 17.0392 6.28575 17.0392 6.28575C17.3421 6.28575 17.5876 6.04018 17.5876 5.73737V0.552434C17.5876 0.249488 17.3421 0.00405078 17.0392 0.00405078H12.5923C12.561 0.00252344 12.4913 0 12.3886 0C11.6171 0 8.93511 0.151473 6.81655 2.10043C4.46922 4.26023 4.79554 6.84615 4.8735 7.29453V11.4351H0.960981C0.658035 11.4351 0.412598 11.6805 0.412598 11.9835V17.5599C0.412664 17.8628 0.658101 18.1084 0.961047 18.1084Z" fill="#6188FF"/>
</svg>
