<svg width="20" height="20" viewBox="0 0 20 20" fill="none" xmlns="http://www.w3.org/2000/svg">
<path d="M1.68448 1.42383C2.32672 0.781594 3.368 0.781594 4.01024 1.42384L18.837 16.2506C19.4792 16.8928 19.4792 17.9341 18.837 18.5763C18.1947 19.2186 17.1534 19.2186 16.5112 18.5763L1.68448 3.74959C1.04224 3.10735 1.04224 2.06608 1.68448 1.42383Z" fill="#5283FF"/>
<path d="M18.5031 1.42382C19.1453 2.06606 19.1453 3.10734 18.5031 3.74958L3.67634 18.5763C3.0341 19.2185 1.99282 19.2185 1.35058 18.5763C0.708336 17.9341 0.708336 16.8928 1.35058 16.2505L16.1773 1.42382C16.8195 0.781578 17.8608 0.781579 18.5031 1.42382Z" fill="#5283FF"/>
</svg>
