<svg width="26" height="23" viewBox="0 0 26 23" fill="none" xmlns="http://www.w3.org/2000/svg">
<path d="M0.459237 11.0284L6.45017 13.3002L8.76902 20.8771C8.9174 21.3624 9.50144 21.5418 9.8891 21.2197L13.2285 18.4538C13.5786 18.164 14.0772 18.1495 14.443 18.4193L20.4662 22.8623C20.8809 23.1686 21.4684 22.9377 21.5724 22.4286L25.9847 0.864654C26.0982 0.308498 25.5604 -0.155465 25.0391 0.0493517L0.452217 9.68619C-0.154537 9.92394 -0.14925 10.7967 0.459237 11.0284ZM8.39531 12.0909L20.1038 4.76409C20.3142 4.6328 20.5307 4.92188 20.35 5.09218L10.6871 14.2182C10.3475 14.5394 10.1284 14.9693 10.0663 15.4359L9.73718 17.9143C9.69358 18.2452 9.23607 18.2781 9.1462 17.9578L7.88025 13.4384C7.73526 12.9229 7.94655 12.3723 8.39531 12.0909Z" fill="#6188FF"/>
</svg>
